<?xml version="1.0" standalone="no"?>
<!DOCTYPE svg PUBLIC "-//W3C//DTD SVG 20010904//EN"
 "http://www.w3.org/TR/2001/REC-SVG-20010904/DTD/svg10.dtd">
<svg version="1.0" xmlns="http://www.w3.org/2000/svg"
 width="360.000000pt" height="360.000000pt" viewBox="0 0 360.000000 360.000000"
 preserveAspectRatio="xMidYMid meet">
<metadata>
Created by potrace 1.14, written by Peter Selinger 2001-2017
</metadata>
<g transform="translate(0.000000,360.000000) scale(0.100000,-0.100000)"
fill="#000000" stroke="none">
<path d="M1600 3590 c-194 -26 -374 -76 -532 -147 -151 -68 -249 -128 -403
-245 -45 -35 -216 -206 -265 -266 -183 -226 -337 -568 -374 -832 -4 -25 -10
-72 -15 -105 -14 -92 -5 -387 13 -490 56 -304 174 -575 355 -810 62 -80 231
-250 311 -312 238 -184 510 -304 820 -359 137 -25 451 -25 580 -1 319 61 531
152 800 344 81 58 235 209 313 308 209 263 321 522 382 885 11 64 14 344 5
420 -17 144 -20 160 -49 273 -153 590 -602 1069 -1182 1256 -102 33 -207 59
-272 67 -23 3 -49 8 -57 11 -24 8 -369 11 -430 3z"/>
</g>
</svg>
